<svg xmlns="http://www.w3.org/2000/svg" viewBox="-81.03501098632813 76.96808170863562 737.0700073242188 369.11192012241906"> <svg xmlns="http://www.w3.org/2000/svg" xmlns:xlink="http://www.w3.org/1999/xlink" version="1.1" id="Layer_1" x="198.5" y="146.96808170863562" viewBox="106.5999984741211 0 843.2000122070312 730.0999755859375" xml:space="preserve" height="154.12452078683035" width="178" preserveAspectRatio="xMinYMin" enable-background="new 0 0 1056.4 730.1" style="overflow: visible;"><polygon class="st0" points="949.8,730.1 705.4,730.1 569.4,494.6 406,211.6 528.2,0  " style="fill: #02CEFD;"></polygon><polygon class="st1" points="487,494.6 364.8,706.2 351,730.1 106.6,730.1 228.8,518.4 242.6,494.5 120.4,282.9 364.8,282.9  " style="fill: #0075FF;"></polygon></svg> <svg y="363.2700004577637" viewBox="0.04000000283122063 4.71999979019165 400.3699951171875 12.810001373291016" x="87.31500061035158" height="12.810001373291016" width="400.3699951171875" style="overflow: visible;"><g fill="#0b1c40" fill-opacity="1" style=""><path d="M1.42 17.42L0.04 17.42L5.80 4.82L7.11 4.82L12.87 17.42L11.47 17.42L6.17 5.60L6.71 5.60L1.42 17.42ZM10.42 14.06L2.30 14.06L2.70 12.98L10.03 12.98L10.42 14.06ZM28.49 17.53L28.49 17.53Q26.08 17.53 24.70 16.15Q23.31 14.76 23.31 12.04L23.31 12.04L23.31 4.82L24.64 4.82L24.64 11.99Q24.64 14.22 25.65 15.28Q26.66 16.34 28.49 16.34L28.49 16.34Q30.35 16.34 31.36 15.28Q32.36 14.22 32.36 11.99L32.36 11.99L32.36 4.82L33.66 4.82L33.66 12.04Q33.66 14.76 32.28 16.15Q30.91 17.53 28.49 17.53ZM49.91 17.42L48.58 17.42L48.58 5.98L44.15 5.98L44.15 4.82L54.34 4.82L54.34 5.98L49.91 5.98L49.91 17.42ZM70.43 17.53L70.43 17.53Q69.01 17.53 67.80 17.06Q66.58 16.58 65.69 15.71Q64.80 14.83 64.31 13.67Q63.81 12.51 63.81 11.12L63.81 11.12Q63.81 9.74 64.31 8.58Q64.80 7.42 65.69 6.54Q66.58 5.67 67.79 5.19Q68.99 4.72 70.43 4.72L70.43 4.72Q71.86 4.72 73.06 5.19Q74.27 5.67 75.16 6.53Q76.05 7.40 76.55 8.57Q77.04 9.74 77.04 11.12L77.04 11.12Q77.04 12.51 76.55 13.68Q76.05 14.85 75.16 15.71Q74.27 16.58 73.06 17.06Q71.86 17.53 70.43 17.53ZM70.43 16.34L70.43 16.34Q71.57 16.34 72.53 15.96Q73.49 15.57 74.20 14.86Q74.92 14.15 75.31 13.20Q75.71 12.26 75.71 11.12L75.71 11.12Q75.71 9.99 75.31 9.05Q74.92 8.10 74.20 7.39Q73.49 6.68 72.53 6.29Q71.57 5.90 70.43 5.90L70.43 5.90Q69.30 5.90 68.33 6.29Q67.36 6.68 66.64 7.39Q65.93 8.10 65.53 9.05Q65.12 9.99 65.12 11.12L65.12 11.12Q65.12 12.24 65.53 13.19Q65.93 14.15 66.64 14.86Q67.36 15.57 68.33 15.96Q69.30 16.34 70.43 16.34ZM89.77 17.42L88.49 17.42L88.49 4.82L89.59 4.82L95.35 14.65L94.77 14.65L100.48 4.82L101.57 4.82L101.57 17.42L100.30 17.42L100.30 6.82L100.60 6.82L95.35 15.82L94.72 15.82L89.42 6.82L89.77 6.82L89.77 17.42ZM113.51 17.42L112.12 17.42L117.88 4.82L119.20 4.82L124.96 17.42L123.55 17.42L118.26 5.60L118.80 5.60L113.51 17.42ZM122.51 14.06L114.39 14.06L114.79 12.98L122.11 12.98L122.51 14.06ZM139.28 17.42L137.95 17.42L137.95 5.98L133.52 5.98L133.52 4.82L143.71 4.82L143.71 5.98L139.28 5.98L139.28 17.42ZM155.63 17.42L154.30 17.42L154.30 4.82L155.63 4.82L155.63 17.42ZM173.70 17.53L173.70 17.53Q172.28 17.53 171.06 17.06Q169.85 16.58 168.96 15.71Q168.07 14.83 167.57 13.67Q167.08 12.51 167.08 11.12L167.08 11.12Q167.08 9.74 167.57 8.58Q168.07 7.42 168.96 6.54Q169.85 5.67 171.05 5.19Q172.26 4.72 173.70 4.72L173.70 4.72Q175.12 4.72 176.33 5.19Q177.53 5.67 178.43 6.53Q179.32 7.40 179.81 8.57Q180.31 9.74 180.31 11.12L180.31 11.12Q180.31 12.51 179.81 13.68Q179.32 14.85 178.43 15.71Q177.53 16.58 176.33 17.06Q175.12 17.53 173.70 17.53ZM173.70 16.34L173.70 16.34Q174.83 16.34 175.80 15.96Q176.76 15.57 177.47 14.86Q178.18 14.15 178.58 13.20Q178.97 12.26 178.97 11.12L178.97 11.12Q178.97 9.99 178.58 9.05Q178.18 8.10 177.47 7.39Q176.76 6.68 175.80 6.29Q174.83 5.90 173.70 5.90L173.70 5.90Q172.57 5.90 171.59 6.29Q170.62 6.68 169.91 7.39Q169.20 8.10 168.80 9.05Q168.39 9.99 168.39 11.12L168.39 11.12Q168.39 12.24 168.80 13.19Q169.20 14.15 169.91 14.86Q170.62 15.57 171.59 15.96Q172.57 16.34 173.70 16.34ZM193.09 17.42L191.75 17.42L191.75 4.82L192.85 4.82L201.55 15.77L200.97 15.77L200.97 4.82L202.28 4.82L202.28 17.42L201.19 17.42L192.51 6.48L193.09 6.48L193.09 17.42ZM231.50 17.53L231.50 17.53Q230.09 17.53 228.81 17.07Q227.52 16.61 226.82 15.89L226.82 15.89L227.34 14.87Q228.01 15.52 229.13 15.96Q230.26 16.40 231.50 16.40L231.50 16.40Q232.69 16.40 233.43 16.10Q234.18 15.80 234.53 15.30Q234.88 14.80 234.88 14.18L234.88 14.18Q234.88 13.45 234.46 13.00Q234.04 12.55 233.35 12.29Q232.67 12.02 231.84 11.83Q231.01 11.63 230.18 11.40Q229.36 11.18 228.66 10.80Q227.97 10.42 227.55 9.80Q227.12 9.18 227.12 8.17L227.12 8.17Q227.12 7.24 227.62 6.45Q228.11 5.67 229.14 5.19Q230.17 4.72 231.77 4.72L231.77 4.72Q232.83 4.72 233.87 5.01Q234.92 5.31 235.67 5.83L235.67 5.83L235.22 6.89Q234.41 6.35 233.51 6.10Q232.60 5.85 231.75 5.85L231.75 5.85Q230.62 5.85 229.88 6.16Q229.14 6.46 228.79 6.98Q228.44 7.49 228.44 8.14L228.44 8.14Q228.44 8.87 228.86 9.32Q229.28 9.77 229.98 10.03Q230.67 10.28 231.50 10.48Q232.33 10.67 233.15 10.91Q233.96 11.14 234.66 11.51Q235.35 11.88 235.77 12.49Q236.20 13.10 236.20 14.09L236.20 14.09Q236.20 15.01 235.69 15.80Q235.19 16.58 234.15 17.06Q233.12 17.53 231.50 17.53ZM253.06 17.53L253.06 17.53Q251.64 17.53 250.43 17.06Q249.21 16.58 248.32 15.71Q247.43 14.83 246.93 13.67Q246.44 12.51 246.44 11.12L246.44 11.12Q246.44 9.74 246.93 8.58Q247.43 7.42 248.32 6.54Q249.21 5.67 250.42 5.19Q251.62 4.72 253.06 4.72L253.06 4.72Q254.48 4.72 255.69 5.19Q256.90 5.67 257.79 6.53Q258.68 7.40 259.17 8.57Q259.67 9.74 259.67 11.12L259.67 11.12Q259.67 12.51 259.17 13.68Q258.68 14.85 257.79 15.71Q256.90 16.58 255.69 17.06Q254.48 17.53 253.06 17.53ZM253.06 16.34L253.06 16.34Q254.20 16.34 255.16 15.96Q256.12 15.57 256.83 14.86Q257.54 14.15 257.94 13.20Q258.34 12.26 258.34 11.12L258.34 11.12Q258.34 9.99 257.94 9.05Q257.54 8.10 256.83 7.39Q256.12 6.68 255.16 6.29Q254.20 5.90 253.06 5.90L253.06 5.90Q251.93 5.90 250.96 6.29Q249.98 6.68 249.27 7.39Q248.56 8.10 248.16 9.05Q247.75 9.99 247.75 11.12L247.75 11.12Q247.75 12.24 248.16 13.19Q248.56 14.15 249.27 14.86Q249.98 15.57 250.96 15.96Q251.93 16.34 253.06 16.34ZM279.50 17.42L271.12 17.42L271.12 4.82L272.45 4.82L272.45 16.27L279.50 16.27L279.50 17.42ZM295.25 17.53L295.25 17.53Q292.84 17.53 291.46 16.15Q290.07 14.76 290.07 12.04L290.07 12.04L290.07 4.82L291.40 4.82L291.40 11.99Q291.40 14.22 292.41 15.28Q293.42 16.34 295.25 16.34L295.25 16.34Q297.11 16.34 298.12 15.28Q299.12 14.22 299.12 11.99L299.12 11.99L299.12 4.82L300.42 4.82L300.42 12.04Q300.42 14.76 299.04 16.15Q297.67 17.53 295.25 17.53ZM316.67 17.42L315.34 17.42L315.34 5.98L310.91 5.98L310.91 4.82L321.10 4.82L321.10 5.98L316.67 5.98L316.67 17.42ZM333.02 17.42L331.69 17.42L331.69 4.82L333.02 4.82L333.02 17.42ZM351.09 17.53L351.09 17.53Q349.67 17.53 348.45 17.06Q347.24 16.58 346.35 15.71Q345.46 14.83 344.96 13.67Q344.47 12.51 344.47 11.12L344.47 11.12Q344.47 9.74 344.96 8.58Q345.46 7.42 346.35 6.54Q347.24 5.67 348.44 5.19Q349.65 4.72 351.09 4.72L351.09 4.72Q352.51 4.72 353.72 5.19Q354.92 5.67 355.81 6.53Q356.71 7.40 357.20 8.57Q357.70 9.74 357.70 11.12L357.70 11.12Q357.70 12.51 357.20 13.68Q356.71 14.85 355.81 15.71Q354.92 16.58 353.72 17.06Q352.51 17.53 351.09 17.53ZM351.09 16.34L351.09 16.34Q352.22 16.34 353.19 15.96Q354.15 15.57 354.86 14.86Q355.57 14.15 355.97 13.20Q356.36 12.26 356.36 11.12L356.36 11.12Q356.36 9.99 355.97 9.05Q355.57 8.10 354.86 7.39Q354.15 6.68 353.19 6.29Q352.22 5.90 351.09 5.90L351.09 5.90Q349.96 5.90 348.98 6.29Q348.01 6.68 347.30 7.39Q346.59 8.10 346.18 9.05Q345.78 9.99 345.78 11.12L345.78 11.12Q345.78 12.24 346.18 13.19Q346.59 14.15 347.30 14.86Q348.01 15.57 348.98 15.96Q349.96 16.34 351.09 16.34ZM370.48 17.42L369.14 17.42L369.14 4.82L370.24 4.82L378.94 15.77L378.36 15.77L378.36 4.82L379.67 4.82L379.67 17.42L378.58 17.42L369.90 6.48L370.48 6.48L370.48 17.42ZM395.71 17.53L395.71 17.53Q394.31 17.53 393.02 17.07Q391.73 16.61 391.03 15.89L391.03 15.89L391.55 14.87Q392.22 15.52 393.34 15.96Q394.47 16.40 395.71 16.40L395.71 16.40Q396.90 16.40 397.65 16.10Q398.39 15.80 398.74 15.30Q399.10 14.80 399.10 14.18L399.10 14.18Q399.10 13.45 398.67 13.00Q398.25 12.55 397.57 12.29Q396.88 12.02 396.05 11.83Q395.23 11.63 394.40 11.40Q393.57 11.18 392.88 10.80Q392.18 10.42 391.76 9.80Q391.34 9.18 391.34 8.17L391.34 8.17Q391.34 7.24 391.83 6.45Q392.33 5.67 393.35 5.19Q394.38 4.72 395.98 4.72L395.98 4.72Q397.04 4.72 398.09 5.01Q399.13 5.31 399.89 5.83L399.89 5.83L399.44 6.89Q398.63 6.35 397.72 6.10Q396.81 5.85 395.96 5.85L395.96 5.85Q394.83 5.85 394.09 6.16Q393.35 6.46 393.00 6.98Q392.65 7.49 392.65 8.14L392.65 8.14Q392.65 8.87 393.07 9.32Q393.50 9.77 394.19 10.03Q394.88 10.28 395.71 10.48Q396.54 10.67 397.36 10.91Q398.18 11.14 398.87 11.51Q399.56 11.88 399.99 12.49Q400.41 13.10 400.41 14.09L400.41 14.09Q400.41 15.01 399.91 15.80Q399.40 16.58 398.37 17.06Q397.33 17.53 395.71 17.53Z" transform="translate(0, 0)"></path></g></svg> <svg y="327.7299995422363" viewBox="-0.030000001192092896 8.84000015258789 597.0700073242188 24.34000015258789" x="-11.035010986328132" height="24.34000015258789" width="597.0700073242188" style="overflow: visible;"><g fill="#0b1c40" fill-opacity="1" style=""><path d="M3.47 32.91L-0.03 32.91L10.74 9.11L14.11 9.11L24.92 32.91L21.35 32.91L11.73 11.02L13.09 11.02L3.47 32.91ZM19.86 26.96L4.56 26.96L5.47 24.24L18.87 24.24L19.86 26.96ZM40.02 32.91L36.62 32.91L36.62 9.11L45.90 9.11Q49.03 9.11 51.24 10.10Q53.45 11.08 54.64 12.95Q55.83 14.82 55.83 17.41L55.83 17.41Q55.83 19.99 54.64 21.84Q53.45 23.70 51.24 24.68Q49.03 25.67 45.90 25.67L45.90 25.67L38.49 25.67L40.02 24.11L40.02 32.91ZM56.24 32.91L52.53 32.91L46.48 24.28L50.12 24.28L56.24 32.91ZM40.02 10.37L40.02 24.45L38.49 22.78L45.80 22.78Q49.06 22.78 50.75 21.37Q52.43 19.96 52.43 17.41L52.43 17.41Q52.43 14.86 50.75 13.46Q49.06 12.07 45.80 12.07L45.80 12.07L38.49 12.07L40.02 10.37ZM77.59 32.91L74.22 32.91L74.22 12.07L66.06 12.07L66.06 9.11L85.75 9.11L85.75 12.07L77.59 12.07L77.59 32.91ZM101.01 32.91L97.61 32.91L97.61 9.11L101.01 9.11L101.01 32.91ZM123.25 33.18L123.25 33.18Q120.53 33.18 118.05 32.35Q115.57 31.52 114.14 30.19L114.14 30.19L115.40 27.54Q116.76 28.73 118.86 29.51Q120.97 30.29 123.25 30.29L123.25 30.29Q125.32 30.29 126.62 29.82Q127.91 29.34 128.52 28.51Q129.13 27.68 129.13 26.62L129.13 26.62Q129.13 25.40 128.33 24.65Q127.53 23.90 126.26 23.44Q124.98 22.98 123.45 22.64Q121.92 22.30 120.38 21.84Q118.83 21.39 117.56 20.67Q116.28 19.96 115.50 18.75Q114.72 17.54 114.72 15.64L114.72 15.64Q114.72 13.80 115.69 12.26Q116.65 10.71 118.68 9.77Q120.70 8.84 123.83 8.84L123.83 8.84Q125.90 8.84 127.94 9.38Q129.98 9.93 131.48 10.95L131.48 10.95L130.36 13.67Q128.83 12.65 127.13 12.19Q125.43 11.73 123.83 11.73L123.83 11.73Q121.82 11.73 120.53 12.24Q119.24 12.75 118.64 13.60Q118.05 14.45 118.05 15.50L118.05 15.50Q118.05 16.76 118.85 17.51Q119.65 18.26 120.92 18.70Q122.20 19.14 123.73 19.50Q125.26 19.86 126.80 20.30Q128.35 20.74 129.63 21.45Q130.90 22.17 131.68 23.36Q132.46 24.55 132.46 26.42L132.46 26.42Q132.46 28.22 131.48 29.77Q130.49 31.31 128.44 32.25Q126.38 33.18 123.25 33.18ZM145.49 32.91L141.98 32.91L152.76 9.11L156.13 9.11L166.94 32.91L163.37 32.91L153.75 11.02L155.11 11.02L145.49 32.91ZM161.87 26.96L146.57 26.96L147.49 24.24L160.89 24.24L161.87 26.96ZM182.04 32.91L178.64 32.91L178.64 9.11L181.42 9.11L197.17 28.66L195.70 28.66L195.70 9.11L199.10 9.11L199.10 32.91L196.32 32.91L180.57 13.36L182.04 13.36L182.04 32.91ZM239.80 32.91L236.44 32.91L236.44 12.07L228.28 12.07L228.28 9.11L247.96 9.11L247.96 12.07L239.80 12.07L239.80 32.91ZM262.92 22.27L262.92 19.38L275.16 19.38L275.16 22.27L262.92 22.27ZM263.23 12.07L263.23 29.95L277.10 29.95L277.10 32.91L259.83 32.91L259.83 9.11L276.62 9.11L276.62 12.07L263.23 12.07ZM301.41 33.18L301.41 33.18Q298.69 33.18 296.40 32.28Q294.10 31.38 292.42 29.73Q290.73 28.08 289.78 25.87Q288.83 23.66 288.83 21.01L288.83 21.01Q288.83 18.36 289.78 16.15Q290.73 13.94 292.43 12.29Q294.13 10.64 296.43 9.74Q298.72 8.84 301.44 8.84L301.44 8.84Q304.20 8.84 306.53 9.77Q308.86 10.71 310.49 12.55L310.49 12.55L308.28 14.69Q306.92 13.26 305.22 12.56Q303.52 11.87 301.58 11.87L301.58 11.87Q299.57 11.87 297.86 12.55Q296.14 13.23 294.88 14.45Q293.62 15.67 292.93 17.36Q292.23 19.04 292.23 21.01L292.23 21.01Q292.23 22.98 292.93 24.67Q293.62 26.35 294.88 27.57Q296.14 28.80 297.86 29.48Q299.57 30.16 301.58 30.16L301.58 30.16Q303.52 30.16 305.22 29.46Q306.92 28.76 308.28 27.30L308.28 27.30L310.49 29.44Q308.86 31.28 306.53 32.23Q304.20 33.18 301.41 33.18ZM340.58 32.91L340.58 9.11L343.98 9.11L343.98 32.91L340.58 32.91ZM326.91 9.11L326.91 32.91L323.51 32.91L323.51 9.11L326.91 9.11ZM340.88 19.35L340.88 22.30L326.57 22.30L326.57 19.35L340.88 19.35ZM362.68 32.91L359.28 32.91L359.28 9.11L362.07 9.11L377.81 28.66L376.35 28.66L376.35 9.11L379.75 9.11L379.75 32.91L376.96 32.91L361.22 13.36L362.68 13.36L362.68 32.91ZM405.79 33.18L405.79 33.18Q403.07 33.18 400.74 32.27Q398.41 31.35 396.71 29.70Q395.01 28.05 394.06 25.84Q393.11 23.63 393.11 21.01L393.11 21.01Q393.11 18.39 394.06 16.18Q395.01 13.97 396.71 12.32Q398.41 10.68 400.72 9.76Q403.04 8.84 405.79 8.84L405.79 8.84Q408.51 8.84 410.81 9.74Q413.10 10.64 414.82 12.29Q416.53 13.94 417.47 16.15Q418.40 18.36 418.40 21.01L418.40 21.01Q418.40 23.66 417.47 25.87Q416.53 28.08 414.82 29.73Q413.10 31.38 410.81 32.28Q408.51 33.18 405.79 33.18ZM405.79 30.16L405.79 30.16Q407.76 30.16 409.45 29.48Q411.13 28.80 412.37 27.56Q413.61 26.32 414.31 24.65Q415.00 22.98 415.00 21.01L415.00 21.01Q415.00 19.04 414.31 17.37Q413.61 15.71 412.37 14.47Q411.13 13.23 409.45 12.55Q407.76 11.87 405.79 11.87L405.79 11.87Q403.78 11.87 402.10 12.55Q400.42 13.23 399.16 14.47Q397.90 15.71 397.21 17.37Q396.51 19.04 396.51 21.01L396.51 21.01Q396.51 22.98 397.21 24.65Q397.90 26.32 399.16 27.56Q400.42 28.80 402.10 29.48Q403.78 30.16 405.79 30.16ZM448.05 32.91L431.77 32.91L431.77 9.11L435.17 9.11L435.17 29.95L448.05 29.95L448.05 32.91ZM470.87 33.18L470.87 33.18Q468.15 33.18 465.82 32.27Q463.49 31.35 461.79 29.70Q460.09 28.05 459.14 25.84Q458.18 23.63 458.18 21.01L458.18 21.01Q458.18 18.39 459.14 16.18Q460.09 13.97 461.79 12.32Q463.49 10.68 465.80 9.76Q468.11 8.84 470.87 8.84L470.87 8.84Q473.59 8.84 475.88 9.74Q478.18 10.64 479.89 12.29Q481.61 13.94 482.55 16.15Q483.48 18.36 483.48 21.01L483.48 21.01Q483.48 23.66 482.55 25.87Q481.61 28.08 479.89 29.73Q478.18 31.38 475.88 32.28Q473.59 33.18 470.87 33.18ZM470.87 30.16L470.87 30.16Q472.84 30.16 474.52 29.48Q476.20 28.80 477.45 27.56Q478.69 26.32 479.38 24.65Q480.08 22.98 480.08 21.01L480.08 21.01Q480.08 19.04 479.38 17.37Q478.69 15.71 477.45 14.47Q476.20 13.23 474.52 12.55Q472.84 11.87 470.87 11.87L470.87 11.87Q468.86 11.87 467.18 12.55Q465.49 13.23 464.24 14.47Q462.98 15.71 462.28 17.37Q461.58 19.04 461.58 21.01L461.58 21.01Q461.58 22.98 462.28 24.65Q462.98 26.32 464.24 27.56Q465.49 28.80 467.18 29.48Q468.86 30.16 470.87 30.16ZM507.59 33.18L507.59 33.18Q504.83 33.18 502.52 32.28Q500.21 31.38 498.51 29.73Q496.81 28.08 495.86 25.87Q494.90 23.66 494.90 21.01L494.90 21.01Q494.90 18.36 495.86 16.15Q496.81 13.94 498.53 12.29Q500.24 10.64 502.55 9.74Q504.87 8.84 507.65 8.84L507.65 8.84Q510.48 8.84 512.82 9.76Q515.17 10.68 516.80 12.51L516.80 12.51L514.69 14.62Q513.23 13.19 511.51 12.53Q509.80 11.87 507.79 11.87L507.79 11.87Q505.75 11.87 504.00 12.55Q502.25 13.23 500.97 14.45Q499.70 15.67 499.00 17.36Q498.30 19.04 498.30 21.01L498.30 21.01Q498.30 22.95 499.00 24.63Q499.70 26.32 500.97 27.56Q502.25 28.80 503.98 29.48Q505.72 30.16 507.76 30.16L507.76 30.16Q509.66 30.16 511.41 29.56Q513.16 28.97 514.66 27.57L514.66 27.57L516.60 30.16Q514.83 31.65 512.47 32.42Q510.10 33.18 507.59 33.18ZM516.60 30.16L513.33 29.72L513.33 20.88L516.60 20.88L516.60 30.16ZM534.65 32.91L531.25 32.91L531.25 9.11L534.65 9.11L534.65 32.91ZM553.04 22.27L553.04 19.38L565.28 19.38L565.28 22.27L553.04 22.27ZM553.35 12.07L553.35 29.95L567.22 29.95L567.22 32.91L549.95 32.91L549.95 9.11L566.75 9.11L566.75 12.07L553.35 12.07ZM587.83 33.18L587.83 33.18Q585.11 33.18 582.62 32.35Q580.14 31.52 578.71 30.19L578.71 30.19L579.97 27.54Q581.33 28.73 583.44 29.51Q585.55 30.29 587.83 30.29L587.83 30.29Q589.90 30.29 591.19 29.82Q592.48 29.34 593.10 28.51Q593.71 27.68 593.71 26.62L593.71 26.62Q593.71 25.40 592.91 24.65Q592.11 23.90 590.84 23.44Q589.56 22.98 588.03 22.64Q586.50 22.30 584.95 21.84Q583.41 21.39 582.13 20.67Q580.86 19.96 580.07 18.75Q579.29 17.54 579.29 15.64L579.29 15.64Q579.29 13.80 580.26 12.26Q581.23 10.71 583.25 9.77Q585.28 8.84 588.40 8.84L588.40 8.84Q590.48 8.84 592.52 9.38Q594.56 9.93 596.05 10.95L596.05 10.95L594.93 13.67Q593.40 12.65 591.70 12.19Q590.00 11.73 588.40 11.73L588.40 11.73Q586.40 11.73 585.11 12.24Q583.81 12.75 583.22 13.60Q582.62 14.45 582.62 15.50L582.62 15.50Q582.62 16.76 583.42 17.51Q584.22 18.26 585.50 18.70Q586.77 19.14 588.30 19.50Q589.83 19.86 591.38 20.30Q592.93 20.74 594.20 21.45Q595.48 22.17 596.26 23.36Q597.04 24.55 597.04 26.42L597.04 26.42Q597.04 28.22 596.05 29.77Q595.07 31.31 593.01 32.25Q590.95 33.18 587.83 33.18Z" transform="translate(0, 0)"></path></g></svg></svg>