<?xml version="1.0" encoding="UTF-8"?>
<svg id="Layer_1" xmlns="http://www.w3.org/2000/svg" version="1.1" viewBox="0 0 500 500">
  <!-- Generator: Adobe Illustrator 29.6.1, SVG Export Plug-In . SVG Version: 2.1.1 Build 9)  -->
  <defs>
    <style>
      .st0 {
        fill: #e61d3b;
      }

      .st1, .st2 {
        fill: #fffcfc;
      }

      .st2 {
        display: none;
      }
    </style>
  </defs>
  <path class="st0" d="M165.03,279.58c-12.67.01-25.33.02-37.99,0-8.23-7.08-16.45-14.17-24.67-21.24.06-39.51-.04-79.01.04-118.52-6.11-.15-12.24-.05-18.36-.05-.05-9-.01-17.98-.02-26.98,26.62.02,53.24-.02,79.86.02-.03,8.98,0,17.96-.02,26.94-5.67,0-11.35-.01-17.02,0v112.06c6.03-.02,12.07.05,18.11-.04.16,9.27.03,18.54.07,27.81Z"/>
  <path class="st0" d="M303.06,278.76c-8.72,0-17.44.02-26.15-.01,8.68-7.74,17.33-15.53,26.14-23.13.03,7.72.01,15.43.01,23.14Z"/>
  <path class="st0" d="M286.88,139.75c0,39.46-.05,78.91.02,118.37-7.44,6.9-15.17,13.48-22.68,20.29-.66.56-1.36,1.32-2.32,1.17-12.17.02-24.35.01-36.52,0,0-9.25-.03-18.52.01-27.77,5.64.03,11.29-.04,16.93.03.18-31.8.02-63.61.08-95.42-.08-5.57.15-11.15-.12-16.73-5.61.14-11.22-.02-16.83.1-.18-9-.03-18-.07-27h79.66c0,8.99.02,17.98,0,26.96-6.05,0-12.1-.01-18.15,0Z"/>
  <path class="st0" d="M374.47,243.88c-6.02-.02-12.05.06-18.06-.04-.21,38.92-.12,77.85-.05,116.78,6.04-.06,12.07-.02,18.11-.02.01,8.92.01,17.84,0,26.76-26.55.01-53.11.01-79.66,0-.01-8.92-.01-17.84,0-26.76,5.69-.08,11.39.12,17.07-.11-.14-14.72-.01-29.46-.06-44.19h-94.37c0,14.77-.03,29.53.01,44.3,5.63-.04,11.27.05,16.9-.06.19,8.95.15,17.91.02,26.86-26.53-.08-53.06,0-79.6-.04v-26.76c6.09-.09,12.18.15,18.26-.13-.24-38.88.1-77.77-.18-116.65-6.02.13-12.05.03-18.08.06v-26.94c26.56,0,53.12-.01,79.68.01-.01,8.97.02,17.95-.01,26.93-5.64-.02-11.29.04-16.93-.04-.18,14.56-.03,29.12-.07,43.67,31.45,0,62.91,0,94.37,0,.06-14.5-.11-29,.08-43.49-5.68-.32-11.4-.04-17.09-.15-.04-8.95.03-17.91-.04-26.86,23.41-.18,46.82-.03,70.24-.07,3.17.05,6.34-.13,9.51.1-.1,8.94-.01,17.89-.05,26.84Z"/>
  <path class="st0" d="M373.15,343.82c-.07-.39-.25-1.16-.33-1.55.05-27.29-.03-54.58.04-81.87,6.1.01,12.2.01,18.31,0,0-20.05.04-40.12-.02-60.18-29.25.02-58.5.02-87.74,0-.02-14.59,0-29.18,0-43.78h18.33c-.04-20.06.1-40.12-.07-60.18h-113c0,20.06,0,40.12.01,60.18h17.01c0,14.6.01,29.19,0,43.78-20.77.02-41.54.02-62.31.01v-43.79c5.68-.01,11.36,0,17.04-.01-.01-20.06,0-40.11-.01-60.17h-112.91v60.18c6.08.02,12.15-.06,18.22.04-.08,36.14-.02,72.29-.03,108.43-.18,1.03.7,1.62,1.34,2.23,10.92,9.34,21.78,18.74,32.67,28.11.73.72,1.71.97,2.71.88,11.27-.06,22.53.04,33.8-.05.11,15.94.03,31.87.04,47.81-6.08.08-12.16-.13-18.23.1.17,19.91.02,39.83.07,59.75h113.08c.05-19.92-.11-39.84.07-59.75-5.68-.19-11.38-.08-17.07-.06-.07-3.65-.03-7.3-.04-10.95h60.99c.01,3.63-.02,7.25.02,10.88-5.68.09-11.36,0-17.03.04.03,19.94-.1,39.89.06,59.84h113c0-19.95.02-39.9,0-59.84-6.01-.08-12.02.13-18.02-.08ZM382.57,395.46c-31.96.01-63.91.02-95.87,0-.01-14.31.02-28.62-.01-42.94,5.68-.08,11.35,0,17.03-.04.01-9.37.01-18.73,0-28.09h-78.19c.05,9.38-.09,18.77.08,28.16,5.66-.09,11.33-.11,16.99.01-.06,14.28-.07,28.56.01,42.84-32.03.16-64.06.02-96.08.06-.04-14.3.02-28.61-.03-42.93,6.12-.1,12.24-.01,18.36-.05.03-21.57-.03-43.15.03-64.74-13.29-.13-26.59-.02-39.88-.04-1.01.18-1.7-.68-2.42-1.22-9.39-8.12-18.78-16.25-28.24-24.3-.12-38.09-.1-76.19,0-114.27-6.13-.16-12.27-.03-18.4-.07v-43.13c32.01-.02,64.02,0,96.03,0v43.13c-5.68.02-11.37-.03-17.06.03.03,20.29.07,40.58,0,60.87,26.45.22,52.93.04,79.39.09.01-20.33.01-40.66,0-60.99h-17.01c0-14.38-.02-28.76,0-43.13,31.95,0,63.9,0,95.85,0,.02,14.37.01,28.75.01,43.13h-18.18v60.99c29.2,0,58.38.03,87.58-.02.08,14.39.02,28.78.03,43.16-6.04-.01-12.07.08-18.1-.05-.18,33.52-.02,67.05-.08,100.57,6.07.02,12.13-.03,18.19.03-.02,14.31,0,28.62-.01,42.94Z"/>
  <path class="st2" d="M364.47,251.92c6.03.13,12.06.04,18.1.05-.01-14.38.05-28.77-.03-43.16-29.2.05-58.38.02-87.58.02v-60.99h18.18c0-14.38.01-28.76-.01-43.13-31.95,0-63.9,0-95.85,0-.02,14.37,0,28.75,0,43.13h17.01c.01,20.33.01,40.66,0,60.99-26.46-.05-52.94.13-79.39-.09.08-20.29.04-40.58,0-60.87,5.69-.06,11.38-.01,17.06-.03v-43.13c-32.01,0-64.02-.02-96.03,0v43.13c6.13.04,12.27-.09,18.4.07-.09,38.08-.11,76.18,0,114.27,9.46,8.05,18.85,16.18,28.24,24.3.72.54,1.41,1.4,2.42,1.22,13.29.02,26.59-.09,39.88.04-.06,21.59,0,43.17-.03,64.74-6.12.04-12.24-.05-18.36.05.05,14.32-.01,28.63.03,42.93,32.02-.04,64.05.1,96.08-.06-.08-14.28-.07-28.56-.01-42.84-5.66-.12-11.33-.1-16.99-.01-.17-9.39-.03-18.78-.08-28.16h78.19c.01,9.36.01,18.72,0,28.09-5.68.04-11.35-.04-17.03.04.03,14.32,0,28.63.01,42.94,31.96.02,63.91.01,95.87,0,.01-14.32-.01-28.63.01-42.94-6.06-.06-12.12,0-18.19-.03.06-33.52-.1-67.05.08-100.57ZM225.45,139.79c-.18-9-.03-18-.07-27h79.66c0,8.99.02,17.98,0,26.96-6.05,0-12.1-.01-18.15,0,0,39.46-.05,78.91.02,118.37-7.44,6.9-15.17,13.48-22.68,20.29-.66.56-1.36,1.32-2.32,1.17-12.17.02-24.35.01-36.52,0,0-9.25-.03-18.52.01-27.77,5.64.03,11.29-.04,16.93.03.18-31.8.02-63.61.08-95.42-.08-5.57.15-11.15-.12-16.73-5.61.14-11.22-.02-16.83.1ZM303.05,255.62c.03,7.72.01,15.43.01,23.14-8.72,0-17.44.02-26.15-.01,8.68-7.74,17.33-15.53,26.14-23.13ZM127.04,279.58c-8.23-7.08-16.45-14.17-24.67-21.24.06-39.51-.04-79.01.04-118.52-6.11-.15-12.24-.05-18.36-.05-.05-9-.01-17.98-.02-26.98,26.62.02,53.24-.02,79.86.02-.03,8.98,0,17.96-.02,26.94-5.67,0-11.35-.01-17.02,0v112.06c6.03-.02,12.07.05,18.11-.04.16,9.27.03,18.54.07,27.81-12.67.01-25.33.02-37.99,0ZM374.47,360.6c.01,8.92.01,17.84,0,26.76-26.55.01-53.11.01-79.66,0-.01-8.92-.01-17.84,0-26.76,5.69-.08,11.39.12,17.07-.11-.14-14.72-.01-29.46-.06-44.19h-94.37c0,14.77-.03,29.53.01,44.3,5.63-.04,11.27.05,16.9-.06.19,8.95.15,17.91.02,26.86-26.53-.08-53.06,0-79.6-.04v-26.76c6.09-.09,12.18.15,18.26-.13-.24-38.88.1-77.77-.18-116.65-6.02.13-12.05.03-18.08.06v-26.94c26.56,0,53.12-.01,79.68.01-.01,8.97.02,17.95-.01,26.93-5.64-.02-11.29.04-16.93-.04-.18,14.56-.03,29.12-.07,43.67,31.45,0,62.91,0,94.37,0,.06-14.5-.11-29,.08-43.49-5.68-.32-11.4-.04-17.09-.15-.04-8.95.03-17.91-.04-26.86,23.41-.18,46.82-.03,70.24-.07,3.17.05,6.34-.13,9.51.1-.1,8.94-.01,17.89-.05,26.84-6.02-.02-12.05.06-18.06-.04-.21,38.92-.12,77.85-.05,116.78,6.04-.06,12.07-.02,18.11-.02Z"/>
  <path class="st1" d="M165.03,279.58c-12.67.01-25.33.02-37.99,0-8.23-7.08-16.45-14.17-24.67-21.24.06-39.51-.04-79.01.04-118.52-6.11-.15-12.24-.05-18.36-.05-.05-9-.01-17.98-.02-26.98,26.62.02,53.24-.02,79.86.02-.03,8.98,0,17.96-.02,26.94-5.67,0-11.35-.01-17.02,0v112.06c6.03-.02,12.07.05,18.11-.04.16,9.27.03,18.54.07,27.81Z"/>
  <path class="st1" d="M303.06,278.76c-8.72,0-17.44.02-26.15-.01,8.68-7.74,17.33-15.53,26.14-23.13.03,7.72.01,15.43.01,23.14Z"/>
  <path class="st1" d="M286.88,139.75c0,39.46-.05,78.91.02,118.37-7.44,6.9-15.17,13.48-22.68,20.29-.66.56-1.36,1.32-2.32,1.17-12.17.02-24.35.01-36.52,0,0-9.25-.03-18.52.01-27.77,5.64.03,11.29-.04,16.93.03.18-31.8.02-63.61.08-95.42-.08-5.57.15-11.15-.12-16.73-5.61.14-11.22-.02-16.83.1-.18-9-.03-18-.07-27h79.66c0,8.99.02,17.98,0,26.96-6.05,0-12.1-.01-18.15,0Z"/>
  <path class="st1" d="M374.47,243.88c-6.02-.02-12.05.06-18.06-.04-.21,38.92-.12,77.85-.05,116.78,6.04-.06,12.07-.02,18.11-.02.01,8.92.01,17.84,0,26.76-26.55.01-53.11.01-79.66,0-.01-8.92-.01-17.84,0-26.76,5.69-.08,11.39.12,17.07-.11-.14-14.72-.01-29.46-.06-44.19h-94.37c0,14.77-.03,29.53.01,44.3,5.63-.04,11.27.05,16.9-.06.19,8.95.15,17.91.02,26.86-26.53-.08-53.06,0-79.6-.04v-26.76c6.09-.09,12.18.15,18.26-.13-.24-38.88.1-77.77-.18-116.65-6.02.13-12.05.03-18.08.06v-26.94c26.56,0,53.12-.01,79.68.01-.01,8.97.02,17.95-.01,26.93-5.64-.02-11.29.04-16.93-.04-.18,14.56-.03,29.12-.07,43.67,31.45,0,62.91,0,94.37,0,.06-14.5-.11-29,.08-43.49-5.68-.32-11.4-.04-17.09-.15-.04-8.95.03-17.91-.04-26.86,23.41-.18,46.82-.03,70.24-.07,3.17.05,6.34-.13,9.51.1-.1,8.94-.01,17.89-.05,26.84Z"/>
  <path class="st0" d="M165.03,279.58c-12.67.01-25.33.02-37.99,0-8.23-7.08-16.45-14.17-24.67-21.24.06-39.51-.04-79.01.04-118.52-6.11-.15-12.24-.05-18.36-.05-.05-9-.01-17.98-.02-26.98,26.62.02,53.24-.02,79.86.02-.03,8.98,0,17.96-.02,26.94-5.67,0-11.35-.01-17.02,0v112.06c6.03-.02,12.07.05,18.11-.04.16,9.27.03,18.54.07,27.81Z"/>
  <path class="st0" d="M286.88,139.75c0,39.46-.05,78.91.02,118.37-7.44,6.9-15.17,13.48-22.68,20.29-.66.56-1.36,1.32-2.32,1.17-12.17.02-24.35.01-36.52,0,0-9.25-.03-18.52.01-27.77,5.64.03,11.29-.04,16.93.03.18-31.8.02-63.61.08-95.42-.08-5.57.15-11.15-.12-16.73-5.61.14-11.22-.02-16.83.1-.18-9-.03-18-.07-27h79.66c0,8.99.02,17.98,0,26.96-6.05,0-12.1-.01-18.15,0Z"/>
  <path class="st0" d="M374.47,243.88c-6.02-.02-12.05.06-18.06-.04-.21,38.92-.12,77.85-.05,116.78,6.04-.06,12.07-.02,18.11-.02.01,8.92.01,17.84,0,26.76-26.55.01-53.11.01-79.66,0-.01-8.92-.01-17.84,0-26.76,5.69-.08,11.39.12,17.07-.11-.14-14.72-.01-29.46-.06-44.19h-94.37c0,14.77-.03,29.53.01,44.3,5.63-.04,11.27.05,16.9-.06.19,8.95.15,17.91.02,26.86-26.53-.08-53.06,0-79.6-.04v-26.76c6.09-.09,12.18.15,18.26-.13-.24-38.88.1-77.77-.18-116.65-6.02.13-12.05.03-18.08.06v-26.94c26.56,0,53.12-.01,79.68.01-.01,8.97.02,17.95-.01,26.93-5.64-.02-11.29.04-16.93-.04-.18,14.56-.03,29.12-.07,43.67,31.45,0,62.91,0,94.37,0,.06-14.5-.11-29,.08-43.49-5.68-.32-11.4-.04-17.09-.15-.04-8.95.03-17.91-.04-26.86,23.41-.18,46.82-.03,70.24-.07,3.17.05,6.34-.13,9.51.1-.1,8.94-.01,17.89-.05,26.84Z"/>
  <path class="st0" d="M303.06,278.76c-8.72,0-17.44.02-26.15-.01,8.68-7.74,17.33-15.53,26.14-23.13.03,7.72.01,15.43.01,23.14Z"/>
</svg>