<?xml version="1.0" encoding="UTF-8"?>
<svg id="Layer_1" xmlns="http://www.w3.org/2000/svg" version="1.1" viewBox="0 0 360 252">
  <!-- Generator: Adobe Illustrator 29.6.1, SVG Export Plug-In . SVG Version: 2.1.1 Build 9)  -->
  <defs>
    <style>
      .st0 {
        fill: #f4792a;
      }
    </style>
  </defs>
  <path class="st0" d="M222.62,55.35l-2.08.56c-1-2.07-2.36-3.2-5.66-3.2h-31.09v84.29c0,3.4,1.51,4.62,3.59,4.62l.41,1.7h-20.17l.41-1.7c2,0,3.68-1.32,3.68-4.62V52.71h-31c-3.21,0-5,1.32-5.76,3.2l-2.07-.56,3-12.93c1.64.4,3.32.55,5,.47h74.54c1.4.02,2.79-.14,4.15-.47l3.05,12.93ZM211.46,131.26c-8.6,0-19.33-.31-22-.61v-1.92c1.76.12,3.29-1.21,3.41-2.97,0-.09,0-.17,0-.26v-60.18c.09-1.75-1.26-3.24-3-3.33-.15,0-.29,0-.44,0v-2c3.31-.3,14.35-.71,21.82-.71,16,0,24.56,8.48,24.56,34s-7.15,37.97-24.36,37.97h0ZM213.64,69.66c-1.45,0-7.52,0-8.14.1v51.1c.62.1,6.79.1,7.52.1,6.63,0,9.74-7.78,9.74-27.67,0-18.68-3.94-23.63-9.12-23.63h0ZM166.13,62.08v-2s-8.18.06-14.72,0c0,0-1.42,1.65-1.42,5.71v50.29c0,4-2.91,6-6.33,6-3.21,0-6.21-1.62-6.21-6v-50.26c0-2.52,1.45-3.83,3.42-3.83v-1.92h-13.87c-1.4,1.58-2.14,3.64-2.06,5.75v51.5c.13,1.98-.12,3.97-.73,5.86,4.76,5.87,11.93,9.25,19.48,9.19,7.51-.16,15.01-.7,22.47-1.62v-1.92c-1.76.12-3.29-1.22-3.4-2.98,0-.08,0-.16,0-.25v-60.19c-.09-1.75,1.25-3.24,3-3.33.13,0,.25,0,.38,0h0Z"/>
</svg>